<?xml version="1.0" encoding="utf-8"?>
<!-- Generator: Adobe Illustrator 18.0.0, SVG Export Plug-In . SVG Version: 6.00 Build 0)  -->
<!DOCTYPE svg PUBLIC "-//W3C//DTD SVG 1.1//EN" "http://www.w3.org/Graphics/SVG/1.1/DTD/svg11.dtd">
<svg version="1.1" id="benefit_1_" xmlns="http://www.w3.org/2000/svg" xmlns:xlink="http://www.w3.org/1999/xlink" x="0px" y="0px"
	 width="76px" height="25px" viewBox="0 0 76 25" enable-background="new 0 0 76 25" xml:space="preserve">
<path id="benefit" fill="#2E469E" d="M63.9,7.8c-0.6,0.1-1.2,0.1-1.8,0.1c-0.3,0-0.3-0.1-0.3,0.3c0,0.1,0,0.2,0.1,0.1h0.6
	c0.1,0,0.2,0,0.2,0.2v10.1c0,0.1,0,0.2-0.2,0.2h-1.8h-0.2v0.4c0,0.1,0.1,0,0.2,0h6.3c0.3,0,0.2,0.1,0.3-0.3c0-0.1,0-0.2-0.2-0.2
	h-1.8c-0.3,0-0.3,0-0.3-0.3v-11V7.1C64.6,7.6,64.3,7.7,63.9,7.8 M71.3,8.5c0-0.2,0-0.2,0.2-0.2h3.4h0.2c0.1-0.1,0-0.3,0-0.4
	S75,7.8,74.9,7.8h-3.4c-0.3,0-0.2,0-0.2-0.2V4.2c0-0.1,0-0.2-0.1-0.2S71,4,70.9,4.2c-0.1,0.6-0.2,1.1-0.5,1.6
	c-0.4,1-1.2,1.7-2.3,1.9c-0.5,0.1-0.9,0.1-1.4,0.1c-0.2,0-0.2,0.1-0.2,0.3c0,0.1,0,0.2,0.2,0.2h2c0.3,0,0.2,0,0.2,0.2v8.6
	c0,1.1,0.6,1.9,1.6,2.2c0.6,0.2,1.2,0.2,1.8,0.2c1.2-0.1,2.2-0.7,2.6-1.9c0.1-0.2,0.1-0.2-0.1-0.2c-0.2-0.1-0.2,0-0.3,0.2
	c0,0.1-0.1,0.3-0.2,0.4c-0.4,0.7-1.1,1.2-2,1.1c-0.7,0-1.1-0.3-1.2-1v-0.4v-4.4C71.3,11.7,71.3,10.2,71.3,8.5 M46.1,11.9h2.2
	c0.2,0,0.3,0,0.3-0.3V11c0-0.6-0.1-1.3-0.3-1.8c-0.3-0.8-0.9-1.4-1.8-1.4c-0.9-0.1-1.6,0.2-2.1,0.9c-0.2,0.3-0.3,0.5-0.4,0.8
	c-0.2,0.7-0.2,1.5-0.2,2.2c0,0.1,0.1,0.1,0.2,0.1C44.7,11.9,45.4,11.9,46.1,11.9 M47.5,12.4H44c-0.2,0-0.2,0.1-0.2,0.2v3.3
	c0,0.6,0.1,1.3,0.4,1.9c0.4,0.8,1,1.2,1.9,1.3c2.4,0.3,4.3-1.2,4.8-3.5c0.1-0.3,0.2-0.3,0.4-0.3c0.1,0,0.1,0.1,0,0.2
	c-0.1,0.5-0.3,1-0.5,1.5c-1,1.8-2.8,2.7-4.8,2.5c-1.3-0.1-2.4-0.6-3.3-1.6c-0.8-0.8-1.2-1.8-1.5-2.9c-0.5-2.1,0-4.1,1.4-5.9
	c0.7-0.8,1.5-1.5,2.5-1.8c1.2-0.4,2.4-0.1,3.5,0.6c1.3,0.9,2.1,2.1,2.5,3.6c0,0.1,0,0.3,0.1,0.4c0,0.2-0.1,0.3-0.2,0.3h-0.2
	C49.8,12.4,48.6,12.4,47.5,12.4 M20.9,11.9h2.2c0.1,0,0.3,0,0.3-0.2c0-0.7,0-1.3-0.1-1.9c-0.1-0.5-0.3-1.1-0.7-1.5
	c-0.6-0.6-1.4-0.6-2.1-0.4C19.7,8,19.2,8.6,19,9.5c-0.3,0.8-0.2,1.6-0.2,2.4c0,0.1,0.1,0.1,0.2,0.1C19.4,12,20.1,11.9,20.9,11.9
	 M22.2,12.4h-3.4c-0.2,0-0.2,0.1-0.2,0.2v3.2c0,0.6,0.1,1.2,0.4,1.8c0.4,0.8,1,1.3,1.9,1.4c2.4,0.3,4.4-1.2,4.8-3.5
	c0-0.1,0-0.2,0.1-0.2h0.4c0.1,0,0,0.1,0,0.1c-0.4,2-1.7,3.6-3.7,4c-1.8,0.4-3.4,0-4.7-1.2c-1-0.9-1.5-2-1.7-3.3
	c-0.4-2.2,0.2-4.2,1.7-6c0.6-0.7,1.3-1.2,2.2-1.4c1.1-0.3,2.2-0.2,3.1,0.4c1.5,0.9,2.4,2.2,2.8,3.9c0.1,0.5,0.1,0.6-0.5,0.6
	C24.4,12.4,23.2,12.4,22.2,12.4 M53.4,7.9c-0.3,0-0.2,0.2-0.2,0.3c0,0.2,0.1,0.2,0.2,0.2h2.2c0.1,0,0.2,0,0.1,0.2
	c-0.1,0.3-0.2,0.5-0.3,0.8c-0.8,2.6-1.5,5.2-2.2,7.9c-0.4,1.6-0.9,3.3-1.5,4.9c-0.3,0.7-0.6,1.4-1.1,1.9c-0.3,0.3-0.7,0.5-1.1,0.5
	c-0.2,0-0.3,0-0.4-0.2s0.1-0.3,0.2-0.4c0.4-0.3,0.4-1,0.1-1.4c-0.3-0.4-1-0.5-1.5-0.3c-0.5,0.2-0.8,0.8-0.7,1.3
	c0.1,0.6,0.7,1.2,1.3,1.3c0.8,0.1,1.6,0,2.3-0.5c0.6-0.4,1-0.9,1.4-1.4c1-1.4,1.8-2.9,2.4-4.6c1.2-3.2,2.2-6.6,3.3-9.8
	c0-0.1,0.1-0.2,0.3-0.2h2.1h0.2V8c0-0.1-0.1,0-0.2,0h-2c-0.1,0-0.2,0-0.1-0.1c0.4-1.2,0.7-2.4,1.2-3.5c0.5-0.9,0.9-1.9,1.7-2.6
	c0.2-0.2,0.5-0.5,0.8-0.6c0.2-0.1,0.4-0.1,0.6-0.1c0.2,0,0.2,0.2,0.1,0.3l-0.1,0.1C62,2.1,62.3,3,62.9,3.4c0.4,0.3,1.1,0.3,1.5,0
	c0.4-0.3,0.6-0.9,0.4-1.5c-0.2-0.7-0.9-1.1-1.7-1.2c-0.7,0-1.4,0.2-2,0.5c-1.1,0.6-2,1.4-2.8,2.4c-1.1,1.3-1.8,2.7-2.4,4.3
	c-0.1,0.1-0.1,0.2-0.3,0.2h-1.1C54.2,7.9,53.8,7.9,53.4,7.9 M29.5,7.9h-2.6c-0.3,0-0.3,0-0.3,0.3c0,0.1,0,0.2,0.2,0.2h1.8
	c0.1,0,0.2,0,0.2,0.2v10.1c0,0.1,0,0.2-0.2,0.2h-1.8c-0.2,0-0.2,0.1-0.2,0.2c0,0.2,0,0.2,0.2,0.2h6H33c0.1,0,0.1,0,0.1-0.1v-0.1
	c0-0.1,0-0.2-0.2-0.2h-1.7c-0.1,0-0.2,0-0.2-0.2v-7.5v-0.2c0.3-0.6,0.7-1.3,1.2-1.8c0.7-0.7,1.5-1.2,2.5-1.3
	c0.9-0.1,1.5,0.3,1.7,1.1c0.1,0.2,0.1,0.5,0.1,0.8v9c0,0.1,0,0.2-0.2,0.2h-1.8h-0.2v0.4c0,0.1,0.1,0,0.2,0h6.3h0.1
	c0.1,0,0.1,0,0.1-0.1v-0.2c0-0.1,0-0.2-0.2-0.2H39c-0.2,0-0.2,0-0.2-0.2v-8.1V10c-0.1-1-0.6-1.7-1.5-2.1c-0.5-0.2-1.1-0.3-1.6-0.4
	c-1.1-0.1-2,0.1-2.9,0.8c-0.7,0.5-1.2,1.1-1.6,1.8c0,0.1,0,0.1-0.1,0.2V7.4C30.5,7.8,30.3,7.9,29.5,7.9 M11.5,13.4
	c0-0.6,0-1.5-0.1-2.3c-0.1-0.7-0.2-1.4-0.5-2.1c-0.3-0.7-0.8-1.1-1.5-1.2c-0.9-0.2-1.8,0-2.6,0.5c-1.3,0.9-2,2.1-2,3.7
	c0,1.2-0.1,2.4,0,3.7c0.1,1,0.4,1.8,1.1,2.4c0.9,0.9,2,1.1,3.2,1c1-0.1,1.6-0.7,1.9-1.6c0.1-0.3,0.2-0.6,0.2-0.9
	C11.5,15.6,11.5,14.6,11.5,13.4 M4.8,0.7v9.4c0.1,0,0.1-0.1,0.1-0.2c0.5-1.2,1.3-2,2.6-2.4C8.6,7,9.6,7.2,10.7,7.7
	c1.5,0.7,2.5,2,3.1,3.6c0.8,2.3,0.4,4.4-1.1,6.3c-1.2,1.4-2.7,2.1-4.6,1.9c-1.4-0.1-2.5-0.9-3.2-2.1c0-0.1-0.1-0.1-0.1-0.2
	c-0.1,0.1,0,0.1,0,0.2V19c0,0.1,0,0.2-0.2,0.2H0.6c-0.1,0-0.2,0-0.2-0.2v-0.1c0-0.1,0-0.1,0.1-0.1h1.6c0.1,0,0.2,0,0.2-0.2V2
	c0-0.1,0-0.2-0.2-0.2H0.5c-0.1,0-0.2,0-0.2-0.2s0-0.2,0.2-0.2h2.5C3.9,1.3,4.4,1.1,4.8,0.7"/>
</svg>
