<?xml version="1.0" encoding="utf-8"?>
<!-- Generator: Adobe Illustrator 18.0.0, SVG Export Plug-In . SVG Version: 6.00 Build 0)  -->
<!DOCTYPE svg PUBLIC "-//W3C//DTD SVG 1.1//EN" "http://www.w3.org/Graphics/SVG/1.1/DTD/svg11.dtd">
<svg version="1.1" id="google_1_" xmlns="http://www.w3.org/2000/svg" xmlns:xlink="http://www.w3.org/1999/xlink" x="0px" y="0px"
	 width="77px" height="25px" viewBox="0 0 77 25" enable-background="new 0 0 77 25" xml:space="preserve">
<path id="google" fill="#2E469E" d="M70.7,9.4c-1.3,0-3.1,1-3.1,3.5l5.4-2.2C72.7,10,71.8,9.4,70.7,9.4L70.7,9.4z M70.9,16.7
	c1.3,0,2.2-0.7,2.9-1.6l2,1.3c-0.7,1-2.2,2.6-4.9,2.6c-3.4,0-6-2.6-6-6c0-3.5,2.5-6,5.6-6s4.6,2.5,5.1,3.8l0.3,0.7l-8,3.3
	C68.7,16.1,69.6,16.7,70.9,16.7L70.9,16.7z M60.3,19.1H63V1h-2.6V19.1z M39.8,16.7c1.8,0,3.4-1.5,3.4-3.6s-1.6-3.6-3.4-3.6
	s-3.4,1.5-3.4,3.6C36.4,15.3,37.9,16.7,39.8,16.7L39.8,16.7z M39.8,7.1c3.3,0,6.1,2.5,6.1,6s-2.7,6-6.1,6c-3.3,0-6.1-2.5-6.1-6
	C33.8,9.7,36.4,7.1,39.8,7.1L39.8,7.1z M56,13.2c0-2.1-1.4-3.6-3.2-3.6s-3.2,1.5-3.2,3.6s1.4,3.6,3.2,3.6C54.6,16.7,56,15.2,56,13.2
	L56,13.2z M55.8,7.4h2.5v10.8c0,4.4-2.6,6.3-5.6,6.3c-2.9,0-4.6-1.9-5.3-3.5l2.3-0.9c0.4,1,1.4,2.1,3,2.1c2,0,3.2-1.2,3.2-3.5v-0.8
	h-0.1c-0.6,0.7-1.7,1.3-3.1,1.3c-3,0-5.5-2.6-5.5-6c0-3.4,2.6-6,5.5-6c1.4,0,2.5,0.6,3.1,1.3h0.1V7.4H55.8z M26.3,16.7
	c1.8,0,3.4-1.5,3.4-3.6s-1.6-3.6-3.4-3.6s-3.4,1.5-3.4,3.6C23,15.3,24.5,16.7,26.3,16.7L26.3,16.7z M26.3,7.1c3.3,0,6.1,2.5,6.1,6
	s-2.7,6-6.1,6s-6.1-2.5-6.1-6C20.4,9.7,23.1,7.1,26.3,7.1L26.3,7.1z M18.7,9.3c0.1,0.4,0.1,1,0.1,1.6c0,1.9-0.5,4.2-2.2,6
	c-1.6,1.7-3.7,2.6-6.5,2.6c-5.1,0-9.4-4.1-9.4-9.3s4.3-9.3,9.4-9.3c2.8,0,4.8,1.1,6.4,2.6l-1.8,1.8c-1.1-1-2.5-1.8-4.5-1.8
	c-3.7,0-6.7,3-6.7,6.8S6.4,17,10.1,17c2.4,0,3.8-1,4.6-1.8c0.7-0.7,1.2-1.8,1.4-3.2h-6.1V9.5h8.6V9.3z"/>
</svg>
