<?xml version="1.0" encoding="utf-8"?>
<!-- Generator: Adobe Illustrator 18.0.0, SVG Export Plug-In . SVG Version: 6.00 Build 0)  -->
<!DOCTYPE svg PUBLIC "-//W3C//DTD SVG 1.1//EN" "http://www.w3.org/Graphics/SVG/1.1/DTD/svg11.dtd">
<svg version="1.1" id="hp" xmlns="http://www.w3.org/2000/svg" xmlns:xlink="http://www.w3.org/1999/xlink" x="0px" y="0px"
	 width="41px" height="41px" viewBox="0 0 41 41" enable-background="new 0 0 41 41" xml:space="preserve">
<path id="HP" fill="#2E469E" d="M32.7,13.9h-3.1L25,26.2h3.2L32.7,13.9z M20.6,40.2H20l4.1-11.3h5.6c1,0,2.1-0.8,2.4-1.7l4.4-12.2
	c0.7-2-0.4-3.6-2.5-3.6h-7.9l-6.6,18.1L16,39.5C7.1,37.4,0.5,29.5,0.5,20C0.5,10.8,6.7,3,15.2,0.6l-3.8,10.6L5,28.8h4.2l5.4-14.9
	h3.2l-5.4,15h4.2l5-13.9c0.7-2-0.4-3.6-2.5-3.6h-3.5l4-11.3h0.9c11.1,0,20.1,9,20.1,20.1S31.7,40.2,20.6,40.2L20.6,40.2z"/>
</svg>
