<svg id="Layer_1" data-name="Layer 1" xmlns="http://www.w3.org/2000/svg" width="1.5in" height="1.25in" viewBox="0 0 108 90"><defs><style>.cls-1{fill:#f6f6f6;}.cls-2{fill:#2f469d;}.cls-3{fill:#53c2b7;}.cls-4{fill:#f27ba4;}</style></defs><title>Packlane Web Icons</title><polygon class="cls-1" points="86.913 16.435 68.953 32.796 68.953 88.531 86.913 72.17 86.913 16.435"/><path class="cls-2" d="M68.9531,89.2808a.75.75,0,0,1-.75-.75V32.7959a.7511.7511,0,0,1,.2451-.5547l17.96-16.36a.75.75,0,0,1,1.2549.5542V72.17a.7511.7511,0,0,1-.2451.5547l-17.96,16.36A.7489.7489,0,0,1,68.9531,89.2808Zm.75-56.1534V86.833L86.1626,71.8389V18.1333Z"/><polygon class="cls-1" points="86.913 16.435 33.318 16.435 14.086 32.796 68.953 32.796 86.913 16.435"/><path class="cls-2" d="M68.9531,33.5459H14.0859A.75.75,0,0,1,13.6,32.2246l19.2319-16.36a.75.75,0,0,1,.4859-.1788H86.9126a.75.75,0,0,1,.5049,1.3042L69.458,33.35A.7479.7479,0,0,1,68.9531,33.5459Zm-52.8281-1.5H68.6626l16.313-14.86H33.5937Z"/><polygon class="cls-3" points="89.98 17.905 72.02 34.265 72.02 90 89.98 73.64 89.98 17.905"/><rect class="cls-1" x="14.0859" y="32.7957" width="54.867" height="55.735"/><path class="cls-2" d="M68.9531,89.2808H14.0859a.75.75,0,0,1-.75-.75V32.7959a.75.75,0,0,1,.75-.75H68.9531a.75.75,0,0,1,.75.75V88.5308A.75.75,0,0,1,68.9531,89.2808Zm-54.1172-1.5H68.2031V33.5459H14.8359Z"/><polygon class="cls-1" points="55.617 24.616 0.75 24.616 14.086 32.796 68.953 32.796 55.617 24.616"/><path class="cls-2" d="M68.9531,33.5459H14.0859a.7471.7471,0,0,1-.3921-.1108L.3579,25.2549A.75.75,0,0,1,.75,23.8657H55.6172a.7462.7462,0,0,1,.3921.1109l13.3359,8.18a.75.75,0,0,1-.3921,1.3892Zm-54.6553-1.5H66.2959l-10.8906-6.68H3.4072Z"/><path class="cls-2" d="M36.5957,73.46H27.4932a3.9672,3.9672,0,0,1-3.4332-5.955l5.8262-10.063a.75.75,0,0,1,1.2979.7519l-5.8262,10.063A2.4672,2.4672,0,0,0,27.4932,71.96h9.1025a.75.75,0,1,1,0,1.5Z"/><path class="cls-2" d="M31.3188,62.68a.75.75,0,0,1-.74-.6328l-.5234-3.3106L27.061,60.21a.75.75,0,0,1-.6621-1.3457l3.9077-1.9224a.7495.7495,0,0,1,1.0718.5557l.6821,4.3154a.7494.7494,0,0,1-.6235.8579A.74.74,0,0,1,31.3188,62.68Z"/><path class="cls-2" d="M48.5317,56.5166a.7483.7483,0,0,1-.6479-.3716L42.02,46.104a2.4756,2.4756,0,0,0-2.1445-1.2227,2.4424,2.4424,0,0,0-2.13,1.2471l-4.88,8.5762a.75.75,0,1,1-1.3037-.7422l4.88-8.5762a3.9274,3.9274,0,0,1,3.4253-2.0049H39.89a3.925,3.925,0,0,1,3.4243,1.9659l5.8643,10.041a.75.75,0,0,1-.647,1.1284Z"/><path class="cls-2" d="M48.6577,56.7065a.7525.7525,0,0,1-.2646-.0483l-4.0879-1.5415a.75.75,0,0,1,.5293-1.4033L47.97,54.896l.2012-3.3311a.7593.7593,0,0,1,.7934-.7036.75.75,0,0,1,.7036.7935l-.2622,4.3467a.75.75,0,0,1-.7485.705Z"/><path class="cls-2" d="M52.4814,73.6318c-.0273,0-.0542,0-.0815-.0005l-11.6255-.23a.75.75,0,0,1,.0142-1.5h.0151l11.6255.23a2.4668,2.4668,0,0,0,2.208-3.66l-4.7822-8.65a.75.75,0,0,1,1.3125-.7256l4.7822,8.65a3.9667,3.9667,0,0,1-3.4683,5.8862Z"/><path class="cls-2" d="M44.1328,75.9a.7443.7443,0,0,1-.4282-.1348l-3.5728-2.49a.75.75,0,0,1-.0322-1.207l3.4468-2.6846a.75.75,0,1,1,.9218,1.1836l-2.644,2.0591,2.7378,1.9082A.75.75,0,0,1,44.1328,75.9Z"/><polygon class="cls-1" points="33.318 16.435 37.408 0.75 91.003 0.75 86.913 16.435 33.318 16.435"/><path class="cls-2" d="M86.9126,17.1855H33.3179a.75.75,0,0,1-.7256-.9394L36.6821.5605A.75.75,0,0,1,37.4077,0H91.0029a.75.75,0,0,1,.7256.94l-4.09,15.6855A.75.75,0,0,1,86.9126,17.1855Zm-52.624-1.5H86.333L90.0322,1.5H37.9873Z"/><path class="cls-2" d="M68.9531,89.2808a.75.75,0,0,1-.75-.75V32.7959a.7511.7511,0,0,1,.2451-.5547l17.96-16.36a.75.75,0,0,1,1.2549.5542V72.17a.7511.7511,0,0,1-.2451.5547l-17.96,16.36A.7489.7489,0,0,1,68.9531,89.2808Zm.75-56.1534V86.833L86.1626,71.8389V18.1333Z"/><path class="cls-4" d="M99.1974,63.9414a.75.75,0,0,1-.4912-.1831L73.9811,42.3472a.75.75,0,0,1,.4912-1.3169h.0064l32.7778.271a.75.75,0,0,1,.6943,1.0171l-8.0527,21.14a.7484.7484,0,0,1-.7007.4829ZM76.5036,42.5469l22.3745,19.376,7.2871-19.13Z"/><line class="cls-1" x1="0.7502" y1="48.7111" x2="22.652" y2="37.9498"/><path class="cls-3" d="M.7508,49.4609A.75.75,0,0,1,.42,48.0376L22.3216,37.2764a.75.75,0,1,1,.6612,1.3466L1.0809,49.3843A.7463.7463,0,0,1,.7508,49.4609Z"/><line class="cls-1" x1="7.0028" y1="61.4366" x2="28.9046" y2="50.6753"/><path class="cls-3" d="M7.0033,62.1865a.75.75,0,0,1-.3311-1.4233L28.5741,50.002a.75.75,0,1,1,.6611,1.3466L7.3333,62.11A.7443.7443,0,0,1,7.0033,62.1865Z"/><line class="cls-1" x1="3.8765" y1="55.0739" x2="25.7783" y2="44.3125"/><path class="cls-3" d="M3.8768,55.8237A.75.75,0,0,1,3.5457,54.4L25.4476,43.6392a.75.75,0,1,1,.6611,1.3466L4.2069,55.7471A.7466.7466,0,0,1,3.8768,55.8237Z"/></svg>