<svg width="33" height="33" viewBox="0 0 33 33" fill="none" xmlns="http://www.w3.org/2000/svg">
<path d="M12.7856 20.8653C18.7608 20.8653 23.6046 17.2324 23.6046 12.751C23.6046 8.26961 18.7608 4.63672 12.7856 4.63672C6.81041 4.63672 1.96655 8.26961 1.96655 12.751C1.96655 14.617 2.80636 16.3358 4.21795 17.7066C3.89322 18.7576 3.33676 19.9752 2.52002 20.575C2.42832 20.6423 2.4795 20.8494 2.59301 20.8416C3.76523 20.7605 5.58884 20.4556 7.1682 19.6872C8.8056 20.4347 10.7286 20.8653 12.7856 20.8653Z" fill="#53B8E8"/>
<path d="M11.4331 22.8211C20.5712 23.3286 24.4655 18.8167 25.7529 14.7793C28.5195 16.06 30.3664 18.3712 30.3664 21.0095C30.3664 22.6867 29.62 24.2318 28.3654 25.4639C28.6474 26.3872 29.1262 27.4534 29.8255 28.0046C29.9147 28.0749 29.8595 28.2858 29.7462 28.2772C28.7028 28.1977 27.1187 27.921 25.7431 27.2442C24.2878 27.9161 22.5786 28.3031 20.7503 28.3031C16.2639 28.3031 12.4952 25.9728 11.4331 22.8211Z" fill="#0097D5"/>
</svg>