<?xml version="1.0" encoding="utf-8"?>
<!-- Generator: Adobe Illustrator 18.0.0, SVG Export Plug-In . SVG Version: 6.00 Build 0)  -->
<!DOCTYPE svg PUBLIC "-//W3C//DTD SVG 1.1//EN" "http://www.w3.org/Graphics/SVG/1.1/DTD/svg11.dtd">
<svg version="1.1" id="Layer_1" xmlns="http://www.w3.org/2000/svg" xmlns:xlink="http://www.w3.org/1999/xlink" x="0px" y="0px"
	 width="89px" height="17px" viewBox="0 0 89 17" enable-background="new 0 0 89 17" xml:space="preserve">
<path id="L_x27_Oreal" fill="#2E469E" d="M2.1,14.1V2.8H0.4v12.7h11.4v-1.4H2.1L2.1,14.1z M8.6,7.4h1.3l2.4-4.5h-1.9L8.6,7.4z
	 M21.7,15c3.5,0,6.7-2.8,6.7-6.3s-2.7-6.5-6.5-6.5c-3.8,0-6.6,3-6.6,6.5C15.2,12.2,18.2,15,21.7,15L21.7,15z M21.8,0.7
	c5.1,0,8.7,3.6,8.7,8c0,4.6-3.8,7.9-8.7,7.9c-4.7,0-8.6-3.2-8.6-7.9C13.1,4.3,16.6,0.7,21.8,0.7L21.8,0.7z M40.4,8.8
	c0.9,0,1.9-0.2,2.4-1c0.3-0.5,0.4-1.3,0.2-1.8c-0.3-0.8-1.1-1.5-2.5-1.5h-6.1v4.3H40.4L40.4,8.8z M42,10.3c1.1,1.7,3.9,5.2,3.9,5.2
	h-2.3l-3.8-5.3h-5.2v5.3h-1.8V2.8h8c2.7,0,4.2,1.4,4.4,3.7C45.1,7.4,44.9,9.5,42,10.3L42,10.3z M71,10.7l-3-6.1l-3,6.1H71z
	 M69.2,2.8l6.5,12.7h-2.1l-1.7-3.3h-7.7l-1.6,3.3h-2.2l6.5-12.7H69.2L69.2,2.8z M76.7,2.8v12.7h11.4v-1.4h-9.7V2.8H76.7z M54,0.8
	l-1.5,1.7l4.8-1.7H54z M48.1,2.8h11.3v1.4H50v4h7.1v1.4H50v4.4h9.4v1.4H48.1V2.8z"/>
</svg>
