<svg width="180" height="42" viewBox="0 0 180 42" fill="none" xmlns="http://www.w3.org/2000/svg">
<g clip-path="url(#clip0_525_31030)">
<path d="M28.572 8.51146C24.5083 6.17353 17.9202 6.17353 13.887 8.51146C9.85392 10.8494 9.87572 14.6589 13.935 17.0011C17.9943 19.3434 24.5825 19.3434 28.6156 17.0011C32.6487 14.6589 32.6356 10.8537 28.572 8.51146ZM28.0967 16.7051C24.347 18.8819 18.2297 18.8819 14.4539 16.7051C10.678 14.5282 10.6649 10.9974 14.4103 8.82057C18.1556 6.64373 24.2816 6.64373 28.0488 8.82057C31.8159 10.9974 31.829 14.5282 28.0967 16.7051Z" fill="#2E469D"/>
<path d="M25.8164 10.7536L22.1931 8.66383L21.1598 9.26464L21.6219 9.53022C21.6644 9.55031 21.6998 9.58261 21.7237 9.62297C21.7476 9.66334 21.7589 9.70991 21.7561 9.75672C21.7533 9.80353 21.7365 9.84843 21.7079 9.88565C21.6794 9.92286 21.6403 9.9507 21.5958 9.96559L15.9538 13.2221C15.8398 13.2697 15.7175 13.2942 15.594 13.2942C15.4705 13.2942 15.3483 13.2697 15.2343 13.2221L14.7722 12.9566L13.7737 13.5356L17.5278 15.7124L18.5262 15.1334L17.4711 14.5282L19.6206 13.2787L20.4927 13.7794C22.6378 15.0159 24.7656 15.2945 26.5968 14.2409C28.4281 13.1873 27.9049 11.9639 25.8164 10.7536ZM24.6217 13.1394C24.169 13.4476 23.635 13.6149 23.0872 13.6203C22.5393 13.6258 22.0022 13.469 21.5434 13.1699L20.6714 12.6692L23.7889 10.8842L24.6609 11.3849C25.8818 12.0684 25.5243 12.6257 24.6217 13.1394Z" fill="#2E469D"/>
<path d="M40.0697 9.30361L26.1826 1.33637C24.6676 0.463332 22.9501 0.0011969 21.2009 -0.00414925C19.4516 -0.0094954 17.7314 0.442133 16.211 1.30589L2.06671 9.29926C1.46352 9.62785 0.956018 10.107 0.593777 10.6901C0.231536 11.2731 0.0269469 11.9399 0 12.6255V29.3959C0.0310634 30.0776 0.237561 30.7398 0.599568 31.3186C0.961575 31.8974 1.46687 32.3733 2.06671 32.7003L16.1325 40.6763C17.6606 41.5446 19.3885 42.0012 21.1467 42.0012C22.9048 42.0012 24.6328 41.5446 26.1608 40.6763L40.0522 32.7003C40.6213 32.3608 41.0889 31.8752 41.4063 31.294C41.7238 30.7129 41.8795 30.0575 41.8573 29.3959V12.6255C41.8849 11.9626 41.7335 11.3045 41.419 10.7201C41.1045 10.1357 40.6385 9.64647 40.0697 9.30361ZM40.2048 29.2174C40.2048 29.914 39.6598 30.628 38.7093 31.1809L25.1362 39.0523C23.9639 39.6961 22.641 40.0162 21.3036 39.9797H21.0507H20.8327C19.4871 40.0185 18.1558 39.6952 16.9784 39.0436L3.42707 31.207C2.47656 30.6628 1.93154 29.9619 1.93154 29.2653L1.96206 18.5726C2.25314 18.8411 2.57343 19.0762 2.91693 19.2736L16.4639 27.1102C17.8012 27.8698 19.3208 28.2507 20.8589 28.2117H21.2731C22.8073 28.2578 24.3251 27.8861 25.6638 27.1363L39.2151 19.2736C39.5606 19.0773 39.8825 18.8421 40.1743 18.5726L40.2048 29.2174ZM40.1656 13.1436C40.1656 13.6355 40.1656 13.9751 40.1656 13.9751C39.8188 14.4202 39.384 14.7893 38.8881 15.0592L25.3498 22.8697C24.0362 23.5869 22.5631 23.9627 21.066 23.9627C19.5689 23.9627 18.0958 23.5869 16.7822 22.8697L3.23086 15.0592C2.7406 14.8072 2.30729 14.4575 1.9577 14.0317V13.4919C1.97697 13.0221 2.12283 12.5663 2.37991 12.1724C2.63699 11.7786 2.99575 11.4613 3.41835 11.2541L16.8955 3.16492C18.1475 2.48892 19.5536 2.14842 20.9766 2.17663C22.4019 2.14166 23.8121 2.47457 25.0708 3.14315L38.6265 10.9493C39.0335 11.1738 39.3837 11.4882 39.6504 11.8685C39.9172 12.2488 40.0934 12.6849 40.1656 13.1436ZM38.9011 18.4725L25.3498 26.4049C24.0335 27.1186 22.5577 27.4885 21.0598 27.4801C19.5619 27.4717 18.0905 27.0854 16.7822 26.357L3.23086 18.4812C2.70231 18.2041 2.25239 17.7983 1.92282 17.3013V14.9503C2.22801 15.2416 2.56771 15.4946 2.93437 15.7035L16.5075 23.5097C17.9218 24.2666 19.5074 24.6474 21.1118 24.6155C22.7108 24.6492 24.2912 24.2681 25.6987 23.5097L39.1584 15.7035C39.5338 15.4895 39.8797 15.2275 40.1874 14.9242V17.2621C39.8686 17.7682 39.4259 18.1847 38.9011 18.4725Z" fill="#2E469D"/>
<path d="M60.2353 15.4817C63.924 15.4817 65.2495 16.7007 65.2495 19.9442V20.9673C65.2102 23.9714 63.8673 25.0903 60.2571 25.0903H58.2515V26.1221C58.7718 26.1814 59.2875 26.276 59.7949 26.4051V29.4875H52.6182V26.4138C53.0542 26.3137 53.4597 26.231 53.9 26.1526V18.8427C53.4989 18.7818 53.028 18.6817 52.5353 18.5641V15.4817H60.2353ZM61.1771 20.1837C61.1771 19.3129 60.8763 19.0038 59.917 19.0038H58.2515V21.825H59.917C60.8196 21.825 61.1379 21.5464 61.1771 20.7279V20.1837Z" fill="#2E469D"/>
<path d="M80.6887 26.1221C81.2369 26.1778 81.7803 26.2724 82.315 26.4051V29.4875H74.6325V26.4138C75.0357 26.3083 75.4448 26.2269 75.8577 26.17L75.6179 25.3297H72.2867L72.1298 26.1526C72.5658 26.231 72.8318 26.3137 73.2329 26.4138V29.4962H66.6142V26.4138C67.1143 26.2807 67.6226 26.1803 68.1359 26.1134L70.3421 18.8036C69.9802 18.7426 69.6227 18.6642 69.1823 18.5641V15.4817H77.2835L80.6887 26.1221ZM73.9305 19.0735L72.9887 22.1211H74.9159L73.9741 19.0735H73.9305Z" fill="#2E469D"/>
<path d="M96.6119 28.3555C95.0376 29.2113 93.2883 29.6967 91.4975 29.7749H90.0368C86.2653 29.7749 84.7 27.955 84.6216 24.0889V20.8454C84.6216 17.1405 86.4877 15.1857 90.0979 15.1857H91.2402C93.0417 15.2223 94.8352 15.4367 96.5945 15.8256V20.5668H92.9625L92.5003 18.7644C91.8414 18.6942 91.1791 18.6607 90.5165 18.6642C89.4962 18.6642 88.973 19.2433 88.973 20.4057V24.594C88.973 25.5735 89.5529 26.2745 90.5165 26.2527H91.2795C91.6648 26.2588 92.0419 26.1417 92.3557 25.9185C92.6695 25.6952 92.9035 25.3775 93.0235 25.0119H96.6337L96.6119 28.3555Z" fill="#2E469D"/>
<path d="M106.518 18.5641C106.071 18.682 105.617 18.7693 105.158 18.8253V20.8977H107.102L108.567 18.7644C108.267 18.7034 107.948 18.6425 107.643 18.5641V15.4817H114.183V18.5641C113.854 18.6517 113.519 18.7186 113.18 18.7644L110.656 22.4258L113.141 26.1526C113.577 26.231 113.983 26.3137 114.406 26.4138V29.4962H107.661V26.4138C107.822 26.3703 108.097 26.3529 108.262 26.3137L106.954 24.2718H105.149V26.1526C105.608 26.2065 106.063 26.2938 106.509 26.4138V29.4962H99.5332V26.4138C99.9692 26.3137 100.375 26.231 100.815 26.1526V18.8253C100.356 18.7713 99.9012 18.684 99.4547 18.5641V15.4817H106.518V18.5641Z" fill="#2E469D"/>
<path d="M117.109 29.4962V26.4138C117.589 26.2919 118.011 26.2135 118.391 26.1526V18.8253C117.889 18.7426 117.449 18.6642 117.026 18.5641V15.4817H124.7V18.5641C124.049 18.7336 123.383 18.8401 122.712 18.8819V26.0525H125.642L126.143 24.2892H129.012V29.5136L117.109 29.4962Z" fill="#2E469D"/>
<path d="M145.563 26.1221C146.111 26.1786 146.655 26.2732 147.19 26.4051V29.4875H139.524V26.4138C139.927 26.3075 140.337 26.2261 140.75 26.17L140.505 25.3297H137.179L137.017 26.1526C137.453 26.231 137.719 26.3137 138.12 26.4138V29.4962H131.489V26.4138C131.989 26.2803 132.497 26.1799 133.01 26.1134L135.217 18.8036C134.855 18.7426 134.493 18.6642 134.052 18.5641V15.4817H142.14L145.563 26.1221ZM138.805 19.0735L137.863 22.1211H139.79L138.844 19.0735H138.805Z" fill="#2E469D"/>
<path d="M164.813 18.5641C164.364 18.682 163.908 18.775 163.448 18.8427V29.4962H159.001L154.689 22.7088V26.2135C155.02 26.2594 155.348 26.3263 155.67 26.4138V29.4962H149.596V26.4138C150.018 26.2993 150.446 26.212 150.878 26.1526V18.8645C150.499 18.8036 150.037 18.7034 149.513 18.5641V15.4817H154.868L159.62 22.7262V18.7818C159.302 18.7252 158.958 18.6425 158.617 18.5641V15.4817H164.813V18.5641Z" fill="#2E469D"/>
<path d="M179.433 20.3056H176.725L176.224 18.9255H173.172V20.7671H175.936V24.2892H173.172V26.0525H176.28L176.782 24.6723H179.468V29.4962H167.543V26.4138C168.005 26.3137 168.415 26.231 168.825 26.1526V18.8253C168.367 18.7636 167.912 18.6764 167.464 18.5641V15.4817H179.433V20.3056Z" fill="#2E469D"/>
</g>
<defs>
<clipPath id="clip0_525_31030">
<rect width="179.455" height="42" fill="white"/>
</clipPath>
</defs>
</svg>
