<?xml version="1.0" encoding="utf-8"?>
<!-- Generator: Adobe Illustrator 18.0.0, SVG Export Plug-In . SVG Version: 6.00 Build 0)  -->
<!DOCTYPE svg PUBLIC "-//W3C//DTD SVG 1.1//EN" "http://www.w3.org/Graphics/SVG/1.1/DTD/svg11.dtd">
<svg version="1.1" id="redbull" xmlns="http://www.w3.org/2000/svg" xmlns:xlink="http://www.w3.org/1999/xlink" x="0px" y="0px"
	 width="83px" height="33px" viewBox="0 0 83 33" enable-background="new 0 0 83 33" xml:space="preserve">
<path id="Red-Bull" fill="#2E469E" d="M44.8,32.4v-9.1h2.6c1.5,0,3.2,0,3.3,2.1c0,0.7-0.1,1.5-0.9,2.1c1.6,0.3,1.7,2.5,1.1,3.5
	c-0.6,1-1.5,1.3-2.6,1.3h-1.7h-0.5H44.8z M46.3,24.5v2.5h1.5c0.9,0,1.6-0.4,1.6-1.4c0-0.8-0.5-1.1-1.5-1.1H46.3z M46.3,28.4v2.8h1.8
	c0.5,0,1.1-0.1,1.4-0.4c0.3-0.3,0.4-0.6,0.4-1c0-0.9-0.8-1.4-2-1.4H46.3L46.3,28.4z M24.2,32.4h-1.7c-0.8-1.1-2.8-3.6-3.5-3.6h-0.9
	v3.6h-1.5v-9.1h4.1c1.2,0,2.4,0.6,2.8,1.6c0.1,0.4,0.2,0.7,0.1,1.1c-0.1,1.4-1.3,2.3-2.6,2.3c0,0,1.2,1.3,1.2,1.4L24.2,32.4z
	 M18.1,24.5v2.8h2.4c1.3,0,2.2-1.5,1.2-2.4c-0.3-0.2-0.7-0.4-1.2-0.4H18.1z M61,32.4h1.4v-9.2H61V32.4z M28.7,27
	c0.9,0,1.8,0.5,2.1,1.3h-4.3C26.8,27.5,27.6,27,28.7,27L28.7,27z M32.2,29.1c-0.1-2.1-1.5-3.4-3.5-3.4S25,27.2,25,29.1
	s1.6,3.4,3.6,3.4c1.6,0,2.9-0.9,3.4-2.3l-1.3-0.3c-0.4,0.8-1.2,1.3-2.2,1.3c-1.2,0-2.2-0.8-2.3-1.9h4.8C32,29.4,32.2,29.4,32.2,29.1
	L32.2,29.1z M36.8,31.4c-1.2,0-2.1-1-2.1-2.3c0-1.3,0.9-2.3,2.1-2.3c1.1,0,2,1,2.1,2.2v0.1C38.9,30.4,38,31.4,36.8,31.4L36.8,31.4z
	 M38.9,23.2v3c-0.6-0.5-1.3-0.8-2.1-0.8c-1.9,0-3.4,1.6-3.4,3.6c0,2,1.5,3.6,3.4,3.6c0.8,0,1.5-0.3,2.1-0.8v0.6h1.4v-9.2L38.9,23.2z
	 M64.2,32.4h1.4v-9.2h-1.4V32.4z M53.2,29.8c0,2.6,1.7,2.8,3.8,2.7c1.6-0.1,2.3-0.9,2.3-2.7V26h-1.4v3.7c0,1.2-0.6,1.7-1.5,1.7
	c-1,0-1.9-0.3-1.9-1.7V26h-1.4v3.8H53.2z M43.8,22.3h3.6h0.5c0.9,0,1.8,0.1,2.5,0.6c0.8-0.8,1.4-1.6,2-2.6h-0.2h-0.1
	c-0.2,0-0.6-0.1-0.8-0.2c-0.3-0.1-0.6-0.2-0.9-0.3c-0.2-0.1-0.7-0.2-0.9-0.2h-0.1h-0.1h-0.4c-0.7,0.1-1.6-0.2-2.1-0.7
	c-0.3,0.3-0.6,0.5-0.8,0.7c-0.7,0.5-1.5,0.5-2.4,0.5c-0.5,0-0.9-0.3-1-0.5c-0.1-0.2,0.3-0.5,0-0.7c-0.4-0.3-1.4-0.5-0.5-1.1
	c0.3-0.2,0.6-0.6,1-1.1c0.1-0.4,0.4-0.8,0.7-1.2l0.6-0.7l0.1-0.1c0.1-0.6,0.3-1.4,0.6-1.9c0-0.2,0.1-0.7,0.3-1.3
	c0.1-0.3,0.2-0.8,0.2-1.1c-0.1-1,0.3-2.1,0.9-2.8c0.1-0.2,0.3-0.5,0.4-0.7c0.3-0.5,0.7-1,1.5-1.8c0.4-0.4,0.8-0.8,1.2-1.2
	c-2.2-1.9-5.1-3-8.3-3c-3.2,0-6.3,1.2-8.5,3.2l1,1c0.8,0.9,1.2,1.4,1.5,1.8c0.1,0.2,0.3,0.4,0.4,0.7c0.6,0.7,0.9,1.9,0.9,2.8
	c0,0.3,0.2,0.8,0.2,1.1c0.2,0.7,0.3,1.1,0.3,1.3c0.3,0.5,0.5,1.2,0.6,1.9l0.1,0.1l0.6,0.7c0.3,0.4,0.5,0.8,0.7,1.2
	c0.4,0.5,0.7,0.9,1,1.1c0.9,0.6-0.1,0.8-0.5,1.1c-0.3,0.2,0,0.5,0,0.7c0,0.2-0.5,0.4-1,0.5c-0.8,0.1-1.6,0-2.4-0.5
	c-0.3-0.2-0.6-0.4-0.8-0.7c-0.6,0.5-1.4,0.8-2.1,0.7H33h-0.1h-0.1c-0.2,0-0.7,0.2-0.9,0.2c-0.3,0.1-0.6,0.2-0.9,0.3
	c-0.2,0.1-0.5,0.1-0.7,0.2c1.1,1.9,2.6,3.4,4.5,4.5c0.5-0.3,1.1-0.4,1.8-0.4c0.4,0,0.7,0,1.1,0.1v-2.4h3.6v4.5h0.2
	c0.8,0,1.5-0.1,2.2-0.2V22.3z M47.3,25.7v0.5h0.5c0.3,0,0.6,0,0.6-0.4c-0.1,0-0.4-0.1-0.5-0.1H47.3z M47.3,29.4v0.7h0.8
	c0.2,0,0.6,0,0.7-0.1c0.1-0.1,0.1-0.1,0.1-0.2v-0.1c-0.1-0.2-0.8-0.2-1-0.2L47.3,29.4z M24.3,30.9c-0.2-0.5-0.4-1.1-0.4-1.8
	c0-0.5,0.1-0.9,0.2-1.3c-0.3,0.5-0.8,0.9-1.3,1.2c0.1,0.1,0.1,0.2,0.2,0.2L24.3,30.9z M75.1,11.4c0,0,0.2,1.6-0.5,3
	c0,0-0.5,0.7,0,1.2l1.1,0.6c0,0,0.1,0.1,0.6,0.1c0,0,0.7-0.2,0.9,0.1c0,0,0.2,0.6,0.4,1c0,0,0.5,1.1,1.3,1.5c0,0,0.6,0.1,0.8,0.7
	c0,0,0.2,0.4,0.6,0.4c0,0,0.3,0.1,0.5,0.8c0,0,0.1,0.5,0.1,0.8c0,0-0.5-0.1-0.9,0.1c0,0-0.8,0.3-1.2-0.4c0,0-0.7-1.3-1.3-1.1
	c0,0-1.1,0.4-1.9-0.4c0,0-1.1-1.2-2.6-0.9c0,0-1.7,0.3-2.2,0c0,0-1.1-0.6-1.5-0.7c0,0-0.5-0.1-0.5-0.7c0,0-0.3-0.8-0.5-1H69
	c0,0,0.7,1.2,2,1.6c0,0,0.7,0.3,2,0.1c0,0,2-0.4,3.7,1.4c0,0,0.2,0.3,0.6,0.2c0,0-0.9-1.6-3-2c0,0-0.7-0.1-1.2-0.1
	c0,0-2.8,0.1-4.1-2.7c0,0,0.1-2.4-0.5-2.9c0,0-0.2-0.1-0.2,0.4c0,0,0.4,2.5-0.4,3c0,0-0.5,0.4-1.3,0.2c0,0-1.3-0.3-2.4-0.1
	c0,0-1.6,0.4-3,0.2c0,0,0.4-0.6,0.3-1.2c0,0-0.2-0.5-0.4-0.2c0,0-0.5,1.8-2,2.3c0,0-1.3,0.5-1.3,2.2c0,0,0.2,0.2,1.9,0.9
	c0,0,0.7,0.2,0.9-0.3c0,0,0.8-1.8,1.6-1.8l1.4,0.1c0,0,0.5,0.1,0.1,0.5c0,0-0.5,0.6-0.7,1c0,0-0.1,0.3-0.5,0.3c0,0-0.6-0.3-1,0.8
	c0,0-0.3,0.6-0.9,0.8c0,0-0.5,0.2-1-0.1c0,0-2.3-0.8-2.7-1.1c0,0-0.5-0.3-0.9-0.1c0,0-0.7,0.2-1-0.4l-0.7-1.1c0,0-0.2-0.3-0.1-0.6
	c0,0-0.1-0.3,0.2-0.7c0,0,0.3-0.3,0.3-0.5l0.5-1.2c0,0,0.2-0.3,0.4-0.4h0.7c0,0-0.5,1.2-0.8,1.7c0,0-0.5,0.7-0.4,1.2
	c0,0,0,0.3,0.2,0.4c0,0,0.2,0.3,0.2,0.4c0,0,0.2,0.4,0.4,0.5c0,0,0.3,0.2,0.4,0.2c0,0,0.1,0,0-0.2c0,0-0.4-0.8-0.4-1.2
	c0,0-0.1-0.4,0.2-0.7c0,0,0.7-1.2,0.8-1.5c0,0,0.2-0.5,0.4-0.5c0,0,0.3-0.3-0.2-0.5c0,0-1-0.2-1.2-0.4c0,0-0.5-0.2-0.8-1.2
	c0,0-0.4-1.2-0.4-2c0,0-0.9,1.7,0.5,3.4c0,0-1.1,0.3-1.5,0c0,0-1.4-0.2-1.6-0.3c0,0-0.3-0.1-0.1,0.2c0,0,0.4,0.6,0.4,1
	c0,0,0,0.3,0.3,0.5c0,0,0.8,0.5,0.8,1.1c0,0,0.2,0.5-0.2,0.4c0,0-0.5-0.2-0.6,0l0.1,0.2c0,0,0.5,0.4,0.5,1c0,0-0.1,0.6-0.2,0.8
	c0,0-0.2,0.3-0.5,0.2c0,0-0.1-0.1-0.2,0c0,0-0.2,0-0.6-0.1c0,0-0.6-0.2-0.9-0.3c0,0-0.8-0.3-1.2-0.3h-0.6c0,0-1,0.1-1.7-0.6
	c0,0-0.5-0.4-0.7,0c0,0-1.3,1.7-3.3,1.3c0,0,1.6-0.7,2-1.6c0,0,0.1-0.8,0.9-1.9c0,0,0.3-0.4,0-0.5c0,0-0.1-0.1-0.5,0.2
	c0,0-0.8,0.8-1.1,1.5c0,0-1,1.5-2.4,1c0,0,1.1-0.4,1.7-1.3c0,0,0.3-1.1,1.4-1.9c0,0,0-1.2,0.6-1.9c0,0,0.3-1.2,0.3-1.4
	c0,0,0.3-1,0.3-1.3c0,0-0.1-1.3,0.8-2.4c0,0,0.6-1.1,1.5-1.9c0,0,0.7-0.8,1.2-1.4c0,0,0.7-0.8,2.1-1.8c0,0,0.7-0.5,1.1-1
	c0,0,2.6-1.9,4.4-0.4c0,0,1.3,0.9,2.3,1.1c0,0,2.2,0.3,3.1,1.8c0,0,0.1,0.3,1,0.4c0,0,1.9-0.2,3.4,1.7c0,0,0.7,0.7,2,0.8
	c0,0,2.1-0.2,3.5,1.4c0,0,3.5,3.1,5.6,1.1c0,0,1.1-1-0.2-2.9c0,0-0.8-1-2.1-2c0,0-1.1-0.8-0.6-2c0,0,0.3-1.2,1.9-1.2
	c0,0,2-0.4,2.9-1.4c0,0,0.9,3.3-2.7,3.2c0,0-0.9,0.1-0.6,0.9c0,0,0.5,0.7,1.1,0.9c0,0,1.1,0.5,1.6,2.1c0,0,1.1,2.8-1.6,3.9
	C77.4,11.7,76.2,11.6,75.1,11.4L75.1,11.4z M80.3,18.2c-0.1-0.1-0.4-0.2-0.6-0.1c-0.4,0.1-0.2,0.5-0.2,0.5c0.2,0.3,0.7,0.9,0.7,0.9
	c0.5,0.4,0.9-0.1,0.9-0.1c0.4-0.4-0.1-0.6-0.1-0.6C80.8,18.6,80.3,18.2,80.3,18.2L80.3,18.2z M81.4,19.9c0,0-0.2,0.1-0.1,0.3
	c0,0,0.4,1.1,0.4,1.5c0,0,0.9,0.2,1-0.3c0,0,0-0.2-0.1-0.4c0,0-0.2-0.2-0.2-0.7c0,0,0-1.1-0.7-0.8C81.6,19.7,81.5,19.8,81.4,19.9
	L81.4,19.9z M49.8,17.7c0.2,0,0.2-0.1,0.2-0.2c-0.1-0.5-0.5-0.7-0.5-0.7c-0.7-0.4-0.8,0-0.8,0c-0.1,0.8,0.5,0.9,0.5,0.9
	C49.3,17.7,49.8,17.7,49.8,17.7L49.8,17.7z M47.6,14.2c0-0.4,0-1.2,0.3-1.5c0.1-0.1,0.7-0.7,0.7-0.7c0.1-0.1,0.1-0.2,0.1-0.2
	c0.1,0,0.3,0.2,0.3,0.2c0.4,0.7,0.8,0.7,0.8,0.7c0-0.1-0.1-0.3-0.1-0.3c-0.1-0.2-0.5-1.1-0.5-1.1c-0.1-0.1-0.1-0.3-0.1-0.3
	c-0.4-0.6-0.7-0.1-0.7-0.1c-0.2,0.3-1,1.3-1,1.3c-0.2,0.2-0.2,0.5-0.2,0.5C47,14,47.6,14.2,47.6,14.2L47.6,14.2z M55.3,5.9
	c0.1-0.2,0.1-0.4,0-0.6c-0.3-0.4-0.5,0-0.5,0c-0.9,1.2-0.2,3.1-0.2,3.1C54.6,6.7,55.3,5.9,55.3,5.9L55.3,5.9z M7.7,11.4
	c0,0-0.2,1.6,0.5,3c0,0,0.5,0.7,0,1.2l-1.1,0.6c0,0-0.1,0.1-0.6,0.1c0,0-0.7-0.2-0.9,0.1c0,0-0.2,0.6-0.4,1c0,0-0.5,1.1-1.3,1.5
	c0,0-0.6,0.1-0.8,0.7c0,0-0.2,0.4-0.6,0.4c0,0-0.3,0.1-0.5,0.8c0,0-0.1,0.5-0.1,0.8c0,0,0.5-0.1,0.9,0.1c0,0,0.8,0.3,1.2-0.4
	c0,0,0.7-1.3,1.3-1.1c0,0,1.1,0.4,1.9-0.4c0,0,1.1-1.2,2.6-0.9c0,0,1.7,0.3,2.2,0c0,0,1.1-0.6,1.5-0.7c0,0,0.5-0.1,0.5-0.7
	c0,0,0.3-0.8,0.5-1h-0.8c0,0-0.7,1.2-2,1.6c0,0-0.7,0.3-2,0.1c0,0-2-0.4-3.7,1.4c0,0-0.2,0.3-0.6,0.2c0,0,0.9-1.6,3-2
	c0,0,0.7-0.1,1.2-0.1c0,0,2.8,0.1,4.1-2.7c0,0-0.1-2.4,0.5-2.9c0,0,0.2-0.1,0.2,0.4c0,0-0.4,2.5,0.4,3c0,0,0.5,0.4,1.3,0.2
	c0,0,1.3-0.3,2.4-0.1c0,0,1.6,0.4,3,0.2c0,0-0.4-0.6-0.3-1.2c0,0,0.2-0.5,0.4-0.2c0,0,0.5,1.8,2,2.3c0,0,1.3,0.5,1.3,2.2
	c0,0-0.2,0.2-1.9,0.9c0,0-0.7,0.2-0.9-0.3c0,0-0.8-1.8-1.6-1.8h-1.4c0,0-0.5,0.1-0.1,0.5c0,0,0.5,0.6,0.7,1c0,0,0.1,0.3,0.5,0.3
	c0,0,0.6-0.3,1,0.8c0,0,0.3,0.6,0.9,0.8c0,0,0.5,0.2,1-0.1c0,0,2.3-0.8,2.7-1.1c0,0,0.5-0.3,0.9-0.1c0,0,0.7,0.2,1-0.4l0.7-1.1
	c0,0,0.2-0.3,0.1-0.6c0,0,0.1-0.3-0.2-0.7c0,0-0.3-0.3-0.3-0.5l-0.5-1.2c0,0-0.2-0.3-0.4-0.4h-0.7c0,0,0.5,1.2,0.8,1.7
	c0,0,0.5,0.7,0.4,1.2c0,0,0,0.3-0.2,0.4c0,0-0.2,0.3-0.2,0.4c0,0-0.2,0.4-0.4,0.5c0,0-0.3,0.2-0.4,0.2c0,0-0.1,0,0-0.2
	c0,0,0.4-0.8,0.4-1.2c0,0,0.1-0.4-0.2-0.7c0,0-0.7-1.2-0.8-1.5c0,0-0.2-0.5-0.4-0.5c0,0-0.3-0.3,0.2-0.5c0,0,1-0.2,1.2-0.4
	c0,0,0.5-0.2,0.8-1.2c0,0,0.4-1.2,0.4-2c0,0,0.9,1.7-0.5,3.4c0,0,1.1,0.3,1.5,0c0,0,1.4-0.2,1.6-0.3c0,0,0.3-0.1,0.1,0.2
	c0,0-0.4,0.6-0.4,1c0,0,0,0.3-0.3,0.5c0,0-0.8,0.5-0.8,1.1c0,0-0.2,0.5,0.2,0.4c0,0,0.5-0.2,0.6,0l-0.1,0.2c0,0-0.5,0.4-0.5,1
	c0,0,0.1,0.6,0.2,0.8c0,0,0.2,0.3,0.5,0.2c0,0,0.1-0.1,0.2,0c0,0,0.2,0,0.6-0.1c0,0,0.6-0.2,0.9-0.3c0,0,0.8-0.3,1.2-0.3h0.6
	c0,0,1,0.1,1.7-0.6c0,0,0.5-0.4,0.7,0c0,0,1.3,1.7,3.3,1.3c0,0-1.6-0.7-2-1.6c0,0-0.1-0.8-0.9-1.9c0,0-0.3-0.4,0-0.5
	c0,0,0.1-0.1,0.5,0.2c0,0,0.8,0.8,1.1,1.5c0,0,1,1.5,2.4,1c0,0-1.1-0.4-1.7-1.3c0,0-0.3-1.1-1.4-1.9c0,0,0-1.2-0.6-1.9
	c0,0-0.3-1.2-0.3-1.4c0,0-0.3-1-0.3-1.3c0,0,0.1-1.3-0.8-2.4c0,0-0.6-1.1-1.5-1.9c0,0-0.7-0.8-1.2-1.4c0,0-0.7-0.8-2.1-1.8
	c0,0-0.7-0.5-1.1-1c0,0-2.6-1.9-4.4-0.4c0,0-1.3,0.9-2.3,1.1c0,0-2.2,0.3-3.1,1.8c0,0-0.1,0.3-1,0.4c0,0-1.9-0.2-3.4,1.7
	c0,0-0.7,0.7-2,0.8c0,0-2.1-0.2-3.5,1.4c0,0-3.5,3.1-5.6,1.1c0,0-1.1-1,0.2-2.9c0,0,0.8-1,2.1-2c0,0,1.1-0.8,0.6-2
	C7,3,6.7,1.7,5,1.7c0,0-2-0.4-2.9-1.4c0,0-0.9,3.3,2.7,3.2c0,0,0.9,0.1,0.6,0.9c0,0-0.5,0.7-1.1,0.9c0,0-1.1,0.5-1.6,2.1
	c0,0-1.1,2.8,1.6,3.9C5.3,11.7,6.6,11.6,7.7,11.4L7.7,11.4z M2.4,18.2C2.5,18.1,2.8,18,3,18.1c0.4,0.1,0.2,0.5,0.2,0.5
	c-0.2,0.3-0.7,0.9-0.7,0.9c-0.5,0.4-0.9-0.1-0.9-0.1c-0.4-0.4,0.1-0.6,0.1-0.6C1.9,18.6,2.4,18.2,2.4,18.2L2.4,18.2z M1.3,19.9
	c0,0,0.2,0.1,0.1,0.3c0,0-0.4,1.1-0.4,1.5c0,0-0.9,0.2-1-0.3c0,0,0-0.2,0.1-0.4c0,0,0.2-0.2,0.2-0.7c0,0,0-1.1,0.7-0.8
	C1.1,19.7,1.2,19.8,1.3,19.9L1.3,19.9z M32.9,17.7c-0.2,0-0.2-0.1-0.2-0.2c0.1-0.5,0.5-0.7,0.5-0.7c0.7-0.4,0.8,0,0.8,0
	c0.1,0.8-0.5,0.9-0.5,0.9C33.4,17.7,32.9,17.7,32.9,17.7L32.9,17.7z M35.1,14.2c0-0.4,0-1.2-0.3-1.5c-0.1-0.1-0.7-0.7-0.7-0.7
	C34,11.8,34,11.7,34,11.7c-0.1,0-0.3,0.2-0.3,0.2c-0.4,0.7-0.8,0.7-0.8,0.7c0-0.1,0.1-0.3,0.1-0.3c0.1-0.2,0.5-1.1,0.5-1.1
	c0.1-0.1,0.1-0.3,0.1-0.3c0.4-0.6,0.7-0.1,0.7-0.1c0.2,0.3,1,1.3,1,1.3c0.2,0.2,0.2,0.5,0.2,0.5C35.7,14,35.1,14.2,35.1,14.2
	L35.1,14.2z M27.4,5.9c-0.1-0.2-0.1-0.4,0-0.6c0.3-0.4,0.5,0,0.5,0c0.9,1.2,0.2,3.1,0.2,3.1C28.1,6.7,27.4,5.9,27.4,5.9L27.4,5.9z"
	/>
</svg>
