<?xml version="1.0" encoding="utf-8"?>
<!DOCTYPE svg PUBLIC "-//W3C//DTD SVG 1.1//EN" "http://www.w3.org/Graphics/SVG/1.1/DTD/svg11.dtd">
<svg version="1.1" id="seatgeek" xmlns="http://www.w3.org/2000/svg" xmlns:xlink="http://www.w3.org/1999/xlink" x="0px" y="0px"
	 width="129px" height="25px" viewBox="0 0 129 25" enable-background="new 0 0 129 25" xml:space="preserve">
<path id="SeatGeek" fill="#2E469E" d="M2.9,13.8H0.5v-2.6h3.7c0.8,0,1.4,0.7,1.4,1.4v4.8H2.8L2.9,13.8z M8.5,16.4L5.9,2.7
	c0,0,3.9-2.6,10.3-2.6c6.4,0,10.3,2.6,10.3,2.6l-2.5,13.7H8.5z M16.2,24.1c-6.3,0-10.3-1.7-10.3-1.7v-2.9c0,0,4,1.8,10.3,1.8
	s10.3-1.8,10.3-1.8v2.9C26.5,22.4,22.4,24.1,16.2,24.1L16.2,24.1z M29.5,17.5h-2.8v-4.8c0-0.8,0.7-1.4,1.4-1.4h3.7v2.6h-2.4
	L29.5,17.5z M45.5,11.1c0.8,0.3,3.3,1.3,3.3,4.3c0,3.4-2.9,4.6-6,4.6C40,20,38,18.8,38,18.8v-2.9c0,0,2.4,1.6,4.8,1.6
	c2.4,0,2.9-0.9,2.9-1.7c0-0.9-0.5-1.2-1.1-1.6c-0.8-0.4-2.1-0.9-3.5-1.4c-1.5-0.6-3.2-1.4-3.2-4.1c0-3.1,2.8-4.5,5.5-4.5
	c2.8,0,4.5,1,4.5,1V8c0,0-2.2-1.3-4.7-1.3c-1.7,0-2.4,0.7-2.5,1.6c-0.1,1,0.6,1.3,1.2,1.6C42.5,10.1,44.8,10.9,45.5,11.1L45.5,11.1z
	 M57.8,12.5c-0.1-1.1-0.7-2.2-2.3-2.2c-1.8,0-2.6,1.1-2.8,2.2H57.8z M56.5,17.5c2.1,0,3.5-1.1,3.5-1.1V19c-0.9,0.5-2,1-3.8,1
	c-6,0-6.3-4.7-6.3-6.1c0-3.1,2-6.1,5.5-6.1c5,0,5,4.6,5,5.4v1.5h-7.8C53.1,16.2,54.2,17.5,56.5,17.5L56.5,17.5z M67.9,14.9
	c-0.9-0.1-3.5-0.3-3.5,1.4c0,2,3.5,1.3,3.5,1.3V14.9z M61.5,16.5c0-2.9,2.5-3.8,6.5-3.6c0-1.3-0.1-2.6-2.3-2.6
	c-1.7,0-3.4,1.1-3.4,1.1V8.7c0,0,1.9-1,4.1-1c1.4,0,4.4,0.2,4.4,4.3v7.4c0,0-2.3,0.4-4,0.4C64.6,20,61.5,19.4,61.5,16.5L61.5,16.5z
	 M77.1,17.5c1,0,2-0.7,2-0.7v2.5c0,0-0.9,0.6-2.8,0.6c-3.9,0-3.8-2.9-3.8-4.6V5.2h2.9v2.9h3.2v2.5h-3.2v5.2
	C75.3,16.9,75.7,17.5,77.1,17.5L77.1,17.5z M87.6,20c-4.7,0-7.9-2.9-7.9-7.9C79.7,7,83.5,4,87.6,4c3,0,4.5,1,4.5,1v2.9
	c-1.1-0.8-2.3-1.3-4.4-1.3c-2.9,0-4.8,2.6-4.8,5.5c0,2.8,1.6,5.2,4.8,5.2c1.1,0,2-0.3,2-0.3v-3.3h-3v-2.6h4.6c0.8,0,1.4,0.7,1.4,1.4
	V19C92.4,19,90.8,20,87.6,20L87.6,20z M101.9,12.5c-0.1-1.1-0.7-2.2-2.3-2.2c-1.8,0-2.6,1.1-2.8,2.2H101.9z M100.5,17.5
	c2.1,0,3.5-1.1,3.5-1.1V19c-0.9,0.5-2,1-3.8,1c-6,0-6.3-4.7-6.3-6.1c0-3.1,2-6.1,5.5-6.1c5,0,5,4.6,5,5.4v1.5h-7.7
	C97.1,16.2,98.3,17.5,100.5,17.5L100.5,17.5z M113.8,12.5c-0.1-1.1-0.7-2.2-2.3-2.2c-1.8,0-2.6,1.1-2.8,2.2H113.8z M112.4,17.5
	c2.1,0,3.5-1.1,3.5-1.1V19c-0.9,0.5-2,1-3.8,1c-6,0-6.3-4.7-6.3-6.1c0-3.1,2-6.1,5.5-6.1c5,0,5,4.6,5,5.4v1.5h-7.8
	C109,16.2,110.2,17.5,112.4,17.5L112.4,17.5z M128.6,19.7h-3.3l-4.3-5.9v5.9H118V4.2h2.9v8.9l4.2-4.9h3.3l-4.6,5.2L128.6,19.7z"/>
</svg>