<?xml version="1.0" encoding="utf-8"?>
<!-- Generator: Adobe Illustrator 18.0.0, SVG Export Plug-In . SVG Version: 6.00 Build 0)  -->
<!DOCTYPE svg PUBLIC "-//W3C//DTD SVG 1.1//EN" "http://www.w3.org/Graphics/SVG/1.1/DTD/svg11.dtd">
<svg version="1.1" id="shopify_1_" xmlns="http://www.w3.org/2000/svg" xmlns:xlink="http://www.w3.org/1999/xlink" x="0px" y="0px"
	 width="76px" height="25px" viewBox="0 0 76 25" enable-background="new 0 0 76 25" xml:space="preserve">
<path id="shopify" fill="#2E469E" d="M71.6,6.3c0,0-2.2,5.6-3.2,8.7h-0.1c-0.1-1-0.9-8.7-0.9-8.7h-3.7l2.1,11.6
	c0.1,0.3,0,0.4-0.1,0.6c-0.4,0.8-1.1,1.6-1.9,2.1c-0.7,0.5-1.4,0.8-2,1l1,3c0.7-0.2,2.2-0.7,3.4-1.9c1.6-1.5,3.1-3.8,4.6-7.1
	l4.3-9.3L71.6,6.3z M63.1,6.2h-2.5l0.1-0.6c0.2-1.2,0.9-2.3,2.1-2.3c0.6,0,1.1,0.2,1.1,0.2l0.7-2.8c0,0-0.6-0.3-1.9-0.3
	c-1.3,0-2.5,0.4-3.4,1.2c-1.2,1-1.8,2.5-2,4l-0.1,0.6h-1.6l-0.5,2.7h1.6l-1.9,10h3.5l1.9-10h2.4L63.1,6.2z M48.1,18.9h3.5L54,6.3
	h-3.5L48.1,18.9z M53,0.9c-1.1,0-2,0.9-2,2c0,1,0.7,1.8,1.7,1.8h0.1c1.1,0,2-0.7,2.1-2C54.9,1.7,54.1,0.9,53,0.9L53,0.9z M40.9,16.5
	c2,0,3.3-3.2,3.3-5.5c0-0.9-0.3-1.9-1.4-1.9c-1.2,0-2.4,1.5-2.8,3.7l-0.6,3.3C39.4,16,40,16.5,40.9,16.5L40.9,16.5z M44.4,6
	C47,6,48,8.1,48,10.6c0,4.3-2.7,8.6-6.9,8.6c-1.3,0-2.1-0.5-2.1-0.5h-0.1l-1,5.2h-3.5l2.5-13c0.3-1.5,0.6-3.4,0.7-4.7h3.1L40.5,8
	h0.1C40.5,8.1,41.9,6,44.4,6L44.4,6z M28.6,16.4c1.9,0,2.9-3.3,2.9-5.5c0-1-0.4-2.1-1.7-2.1c-1.9,0-3,3.3-3,5.3
	C26.9,15.4,27.4,16.4,28.6,16.4L28.6,16.4z M30.4,6c3.3,0,4.8,2.4,4.8,4.9c0,4.4-2.8,8.2-7.1,8.2c-3.2,0-4.9-2.2-4.9-4.9
	C23.3,9.9,26.1,6,30.4,6L30.4,6z M19.4,6c-1.6,0-2.8,0.7-3.7,1.9h-0.1L17,0.8h-3.5l-3.4,18.2h3.5l1.2-6.3c0.5-2.3,1.7-3.8,2.8-3.8
	c0.8,0,1.1,0.5,1.1,1.3c0,0.5-0.1,1.1-0.2,1.6l-1.3,7.1h3.5l1.4-7.4c0.2-0.8,0.3-1.7,0.3-2.3C22.4,7.2,21.3,6,19.4,6L19.4,6z
	 M6.7,11.4c1.4,0.8,2.5,1.9,2.5,3.4c0,2.8-2.3,4.4-5.4,4.4c-2.2,0-3.5-0.9-3.5-0.9l0.9-2.5c0,0,1.4,0.8,2.9,0.8c1,0,1.5-0.5,1.5-1.2
	c0-0.6-0.4-1.1-1.5-1.7c-1.3-0.8-2.3-1.8-2.3-3.2c0-2.5,2.1-4.2,5.2-4.2c2.2,0,3,0.6,3,0.6L9.3,9.4c0,0-1-0.5-2.2-0.5
	c-1,0-1.6,0.5-1.6,1.2C5.3,10.5,5.8,10.9,6.7,11.4L6.7,11.4z"/>
</svg>
