<?xml version="1.0" encoding="utf-8"?>
<!-- Generator: Adobe Illustrator 18.0.0, SVG Export Plug-In . SVG Version: 6.00 Build 0)  -->
<!DOCTYPE svg PUBLIC "-//W3C//DTD SVG 1.1//EN" "http://www.w3.org/Graphics/SVG/1.1/DTD/svg11.dtd">
<svg version="1.1" id="times_1_" xmlns="http://www.w3.org/2000/svg" xmlns:xlink="http://www.w3.org/1999/xlink" x="0px" y="0px"
	 width="171px" height="25px" viewBox="0 0 171 25" enable-background="new 0 0 171 25" xml:space="preserve">
<path id="times" fill="#2E469E" d="M77.2,5.3c0-1-0.4-1.5-1-1.5c-0.9,0-1.1,1.2-1.1,1.2s-0.2-1,0.7-1.9c0.5-0.5,1.3-1.2,2.7-0.9
	c1.4,0.3,1.8,1.4,1.8,2.4v13.2c0,0,0.5,0.1,0.9,0.1l0.8,0.2V2.3h0.2v2.1L85,2.1L87.2,4l1-0.8l0.1,0.1l-1,0.9v12.3
	c0,0.8-0.2,1.6-0.9,2.1c-1.7,1-3.7-0.2-5.5-0.4c-1.3-0.2-3.4-0.5-4,0.8c-0.2,0.4-0.2,1,0.4,1.4c1.2,0.8,6.7-1.4,8.6-0.5
	c1.7,0.8,1.7,2,1.4,2.9c-0.4,1.6-2.5,1.9-2.5,1.9s1-0.6,0.7-1.5c-0.1-0.5-0.5-0.6-1.5-0.5c-2.3,0.3-5.1,1.4-7.1,0.6
	c-1-0.4-1.6-1.6-1.6-2.8c0-1.7,2-2.4,2-2.4v-6.4c-0.1-0.2-1.1-0.2-1.3,0.3c-0.3,0.7,0.4,1,0.4,1s-0.6,0.1-1.2-0.5
	c-0.3-0.3-0.8-1.4-0.1-2.4c0.6-0.8,1.3-1,2.2-1.1V5.3z M82.1,18.3c0,0,0.8,0.2,1.4-0.3c0.7-0.6,0.6-1.3,0.6-1.3v-4.9
	c0,0-0.4-0.5-1-0.5c-0.6,0-1,0.5-1,0.5V18.3z M84.1,5.3l-1.4-1.2L82,4.6v4.5c0,0,0.4,0.5,1,0.5s1-0.5,1-0.5L84.1,5.3z M84.1,9.6
	c0,0-0.4,0.4-1,0.4c-0.6,0-1-0.4-1-0.4v1.9c0,0,0.4-0.4,1-0.4c0.6,0,1,0.4,1,0.4V9.6z M107,5.5c0-1-0.4-1.6-1-1.6l3.5-2.5v14.2
	l0.9,1l0.7-0.6l0.1,0.1l-2.9,2.5l-1.9-1.8l-0.8,0.7l-0.1-0.1l1.4-1.2V5.5H107z M109.8,11.9l3.2-4.7c0,0,0.4,0.5,1.2,0.7
	c1,0.3,1.9-0.7,1.9-0.7c-0.2,1.3-0.8,2.7-2.1,2.9c-1.2,0.2-2.2-0.7-2.2-0.7l-0.2,0.3l4.5,6.9l0.9-0.8l0.1,0.1l-3.1,2.7L109.8,11.9z
	 M102.3,9.2l1.8-1.8c0,0,0.2,0.2,0.5,0.3c0.1,0.1,0.7,0.3,1.1,0.1c0.3-0.1,0.3-0.2,0.6-0.5c0.1,1.4-0.6,2.4-1.4,2.8
	c-0.3,0.2-1.3,0.5-2.4-0.8v6.5l1.1,1l0.9-0.8l0.1,0.1l-2.9,2.4l-2.2-2l-0.8,0.7L98.6,17l1.2-1.1v-5.6l-0.9-1.2l-0.8,0.7L98,9.7
	l2.8-2.5L102.3,9.2z M96.8,9.8l0.8-0.7l0.1,0.1L97,9.9v6.1c0,0-1.5,0.8-2.6,1.4c-1.1,0.6-2.2,1.3-2.2,1.3l-2.8-2.3l-0.7,0.6
	l-0.1-0.1l0.8-0.7V9.7c0,0,1.3-0.6,2.4-1.2c1-0.6,2.1-1.2,2.1-1.2L96.8,9.8z M92,15.1l2.3,2.1v-6.6L92,8.5V15.1z M165.4,19.4
	c-0.3,0.1-1.6-0.2-2-1.6c-0.3-1.3,0.6-2.3,2-3.7l-1.7-1.5V9.7c0,0,1.2-0.6,2.2-1.2c1-0.6,1.9-1.2,1.9-1.2s0.7,0.9,1.5,0.8
	c1.3-0.1,1.2-1.1,1.2-1.3c0.2,0.4,0.8,1.5-1.4,4.1l1.8,1.5v3.8c0,0-2.1,1.1-4.1,2.5c0,0-1.1-1.4-2.1-0.7
	C164.1,18.3,164.4,19.1,165.4,19.4z M163.7,16.5c0,0,1-1.6,2.6-1.2c1.6,0.3,2.1,2,2.1,2v-3.8l-1.1-1C166.2,13.7,164,15.4,163.7,16.5
	z M166.3,8.5v3l1,0.9c0,0,2.2-1.7,3-3.4c0,0-1,1.3-2.3,0.9C166.8,9.6,166.3,8.5,166.3,8.5z M130.5,0.8c0.5,0,1.2,0.3,1.8,0.8
	c0.6,0.6,0.7,1.5,0.5,2.2s-0.4,1.1-1.1,1.6c-0.7,0.5-1.6,0.5-1.6,0.5v3.1l1.5,1.2l-1.5,1.2v4.1c0,0,1.5-0.9,2.4-2.8
	c0,0,0-0.1,0.1-0.3c0.1,0.5,0,1.6-0.5,2.9c-0.4,1-1.2,2-2.2,2.5c-1.8,1-3.1,1.1-4.5,0.8c-1.7-0.3-3.2-1.3-4.2-2.9
	c-0.7-1.1-1.1-2.5-1-3.9c0.1-2.8,2.2-5.3,4.6-6.3c0.3-0.1,0.4-0.2,0.8-0.2c-0.2,0.1-0.4,0.3-0.7,0.5c-0.8,0.5-1.5,1.5-1.7,2.3
	l4.7-2.1v6.7l-3.8,1.9c0.4,0.6,1.8,1.5,2.9,1.6c1.9,0.2,3-0.6,3-0.6v-4.3l-1.5-1.2L130,9V5.8c-0.8-0.1-1.8-0.4-2.4-0.5
	c-0.8-0.2-3.7-1-4.1-1.1c-0.4-0.1-1,0-1.3,0.2c-0.3,0.3-0.5,0.8-0.4,1.3c0.1,0.3,0.3,0.4,0.4,0.6c0,0-0.2,0-0.5-0.2
	c-0.5-0.3-0.9-0.9-1-1.7c-0.1-1,0.4-1.9,1.2-2.5c0.7-0.5,1.5-0.8,2.5-0.6c1.4,0.2,3.3,1,4.9,1.4c0.6,0.2,1.1,0.2,1.6-0.1
	c0.2-0.2,0.6-0.5,0.3-1.1c-0.4-0.6-1-0.6-1.6-0.7C130,0.8,130.1,0.8,130.5,0.8z M124.9,14V7.5L123,8.5c0,0-0.5,1.1-0.4,2.7
	c0.1,1.2,0.8,2.7,1.3,3.3L124.9,14z M133.3,4.9l2-1.8l1.6,1.8l-2,1.8L133.3,4.9z M135.2,7.3l2,2.3l0.9-0.8l0.1,0.1l-0.9,0.8v5.6
	l1.1,1.3l0.8-0.7l0.1,0.1l-2.7,2.4l-1.9-2.1l-0.9,0.7l-0.1-0.1l0.8-0.7v-5.8l-1.1-1.4l-0.7,0.6l-0.1-0.1L135.2,7.3z M141.1,7.3
	l1.9,2.1l2.6-2.1l1.9,2.1l2.7-2.2l1.9,2.1l1-0.8l0.1,0.1l-1,0.8v5.8l1,1.2l0.7-0.6l0.1,0.1l-2.8,2.6l-2.1-2.3l0.5-0.5v-5l-1.5-1.6
	l-0.4,0.5v6.2l0.7,0.8l-2,2l-1.9-2.1l0.5-0.5v-5l-1.4-1.7l-0.5,0.4v6.2l0.8,0.9l-2.1,2l-2-2.3l0.6-0.6v-5l-1.3-1.5l-0.9,0.7
	l-0.1-0.1L141.1,7.3z M160.2,7.2l2,3.7l-4.2,3.1v0.7l2.1,2l2.6-2l0.1,0.1l-4.6,3.7l-2.7-2.4l-0.8,0.7l-0.1-0.1l0.9-0.7V10
	c0,0,1.3-0.6,2.3-1.2C158.8,8.2,160.2,7.2,160.2,7.2z M160.2,12.4l-2.1-3.6V14L160.2,12.4z M60,18.7l-2.3-1.9l-1,0.7l-0.1-0.1l1-0.7
	v-5.3c0-2.2-2-1.6-1.9-3.9c0-1,1-1.8,1.5-2c0.5-0.3,1.1-0.3,1.1-0.3s-0.9,0.6-0.7,1.4c0.3,1.3,2.5,1.4,2.6,3.1v6.1l1.6,1.3l0.4-0.3
	v-6.6l-0.9-0.9l2.3-2l2.1,1.8L65,10v5.8l1.9,1.6l0.3-0.2v-7l-0.9-0.8l2.3-2.1L70.7,9l0.8-0.7l0.1,0.1l-1.9,1.7v5.6l-4.9,3l-2.5-2
	L60,18.7z M53.6,7.2l2,3.7l-4.2,3.1v0.7l2.1,2l2.6-2l0.1,0.1l-4.6,3.7l-2.7-2.4L48,16.9l-0.1-0.1l0.9-0.7V10c0,0,1.3-0.6,2.3-1.2
	C52.2,8.2,53.6,7.2,53.6,7.2z M53.6,12.4l-2.1-3.6V14L53.6,12.4z M38.3,20.5c-1.5,0.3-2.4-0.5-2.9-1.1c-0.5-0.7-0.6-1.8-0.1-2.8
	c0.8-1.6,2.7-1.6,3.2-1.6V11c0-0.2-1.2-0.1-1.4,0.4c-0.2,0.6,0.4,1,0.4,1s-0.4,0-0.9-0.3c-0.4-0.3-0.8-1-0.8-1.7c0.1-2,2-2,2.7-2.1
	V5.4c-0.3-0.5-0.6-1.1-1.3-1.1c-0.8,0-1,1.2-1,1.2s-0.1-0.3,0-1.4c0.1-1,1.1-2.2,2.4-2.2c1.1,0,1.9,0.7,2.4,1.5l5.3,9.7V5.4
	c-0.7,0-1.4-0.1-2.4-1l-0.8,0.9l-0.1-0.1l2.7-3.1c0,0,0.7,0.8,1.8,0.8c0.9,0,1.4-0.7,1.5-1.4c0.2,0.1,0.7,1.7-0.7,3.1
	C48,5,47.1,5.4,46.5,5.4v13.2c0,0,0.1,0.2-0.2,0.2c-0.3,0-0.4-0.1-0.4-0.1L38.7,5.6V15c1.1,0.2,2.1,0.7,2.9,1.5l0.7-0.8l0.1,0.1
	l-2.7,3c-0.6-0.7-1.4-1.1-2.1-1c-0.7,0.1-1.1,0.8-1.1,1.2C36.6,19.6,37.1,20.3,38.3,20.5z M17.5,21c0.7-0.2,1-0.3,1.8-1.1
	c0.7-0.8,0.7-2.6,0.7-4v-5.2L18.7,9l-0.9,0.7v6.2l0.7,0.7l0.7-0.6l0.1,0.1l-3,2.4l-1.9-1.8l-0.7,0.5L13.5,17l1.4-1V5.1
	c0-0.7-0.5-0.7-0.6-0.8l3.3-2.6v7.9l2.7-2.3l2.1,2.3l0.9-0.7L23.5,9l-0.9,0.7v4.8l-0.1,2.2c0,1.6-0.7,3.1-2.1,3.8
	C19.2,21.3,18.1,21.2,17.5,21z M29.7,7.2l2.1,3.7l-4.2,3.1v0.7l2.1,2l2.6-2l0.1,0.1l-4.6,3.7l-2.8-2.4l-0.8,0.7L24,16.8l0.9-0.7V10
	c0,0,1.3-0.6,2.3-1.2C28.2,8.2,29.7,7.2,29.7,7.2z M29.8,12.4l-2.1-3.6V14L29.8,12.4z M11.2,0.8c0.5,0,1.2,0.3,1.8,0.8
	c0.6,0.6,0.7,1.5,0.5,2.2s-0.4,1.1-1.1,1.6c-0.7,0.5-1.6,0.5-1.6,0.5v3.1l1.5,1.2l-1.5,1.2v4.2c0,0,1.5-0.9,2.4-2.8
	c0,0,0-0.1,0.1-0.3c0.1,0.5,0,1.6-0.5,2.9c-0.4,1-1.2,2-2.2,2.5c-1.8,1-3.1,1.1-4.5,0.8c-1.7-0.3-3.2-1.3-4.2-2.9
	c-0.7-1.1-1.1-2.5-1-3.9C0.9,9.2,3,6.6,5.4,5.7c0.3-0.1,0.4-0.2,0.8-0.2C6.1,5.6,5.9,5.8,5.5,6C4.7,6.5,4,7.5,3.8,8.4l4.7-2.1v6.7
	l-3.8,1.9c0.4,0.6,1.7,1.5,2.9,1.6c1.9,0.2,3-0.6,3-0.6v-4.3l-1.5-1.2l1.5-1.2V5.9C9.9,5.8,8.9,5.5,8.3,5.4c-0.8-0.2-3.7-1-4.1-1.1
	c-0.4-0.1-1,0-1.3,0.2C2.5,4.8,2.3,5.3,2.4,5.8c0.1,0.3,0.3,0.4,0.4,0.6c0,0-0.2,0-0.5-0.2c-0.5-0.3-0.9-0.9-1-1.7
	C1.2,3.5,1.7,2.6,2.5,2C3.2,1.5,4,1.2,5,1.4c1.4,0.2,3.3,1,4.9,1.4C10.6,3,11.1,3,11.6,2.7c0.2-0.2,0.6-0.5,0.3-1.1
	c-0.4-0.6-1-0.6-1.6-0.7C10.8,0.8,10.9,0.8,11.2,0.8z M5.5,14l-1,0.5c-0.5-0.6-1.2-2.1-1.3-3.3C3.1,9.6,3.6,8.5,3.6,8.5l1.9-0.9V14z
	"/>
</svg>
